<svg xmlns="http://www.w3.org/2000/svg" width="39.28" height="39" viewBox="0 0 39.28 39">
  <metadata><?xpacket begin="﻿" id="W5M0MpCehiHzreSzNTczkc9d"?>
<x:xmpmeta xmlns:x="adobe:ns:meta/" x:xmptk="Adobe XMP Core 5.6-c138 79.159824, 2016/09/14-01:09:01        ">
   <rdf:RDF xmlns:rdf="http://www.w3.org/1999/02/22-rdf-syntax-ns#">
      <rdf:Description rdf:about=""/>
   </rdf:RDF>
</x:xmpmeta>
                                                                                                    
                                                                                                    
                                                                                                    
                                                                                                    
                                                                                                    
                                                                                                    
                                                                                                    
                                                                                                    
                                                                                                    
                                                                                                    
                                                                                                    
                                                                                                    
                                                                                                    
                                                                                                    
                                                                                                    
                                                                                                    
                                                                                                    
                                                                                                    
                                                                                                    
                                                                                                    
                           
<?xpacket end="w"?></metadata>
<defs>
    <style>
      .cls-1 {
        fill: #fff;
        fill-rule: evenodd;
      }
    </style>
  </defs>
  <path id="Plane" class="cls-1" d="M1259.89,2085.45h0a2.314,2.314,0,0,1,.83.13c0.17,0.46.41,2.14-1.33,3.87l-8.1,8.05-0.78.78,0.07,1.1c0.13,2.29.38,6.4,0.6,9.92,0.18,3.13.37,6.09,0.38,6.35a0.432,0.432,0,0,1-.16.4c-0.36.44-1.04,1.19-1.61,1.8-0.88-2.37-2.74-7.38-3.77-10.18l-1.32-3.61-2.73,2.72-5.02,4.8-0.7.69-0.02.98c-0.02.79-.01,2.19-0.01,3.43v2.08a0.714,0.714,0,0,1,.15.08c-0.11-.17-0.22-0.36-0.35-0.55-1.01-1.61-2.41-3.83-2.84-4.52l-0.31-.51-0.51-.3c-1.87-1.13-3.93-2.42-5.19-3.23a0.9,0.9,0,0,1,.1.09h0.09c0.39,0,1.05.01,1.78,0.02,0.96,0.02,2.05.03,2.89,0.03,0.32,0,.6,0,0.83-0.01l0.99-.02,0.7-.69,4.83-4.96,2.72-2.71-3.61-1.32c-2.71-.99-7.91-2.92-10.34-3.83,0.62-.57,1.37-1.25,1.81-1.61a0.53,0.53,0,0,1,.29-0.15h0.08c0.27,0.02,3.64.23,6.9,0.45,3.46,0.22,7.36.47,9.58,0.61l1.1,0.07,0.79-.78,8.1-8.05a4.371,4.371,0,0,1,3.09-1.42m0-2.45a6.873,6.873,0,0,0-4.83,2.14l-8.1,8.05c-4.56-.29-16.24-1.05-16.53-1.06-0.05,0-.11-0.01-0.18-0.01a2.8,2.8,0,0,0-1.85.72c-0.91.74-2.81,2.52-2.81,2.52a1.914,1.914,0,0,0-.63,1.55,1.431,1.431,0,0,0,1,1.22c0.48,0.18,8.14,3.03,11.68,4.33l-4.83,4.96c-0.22,0-.48.01-0.78,0.01-1.47,0-3.76-.05-4.67-0.05h-0.29c-0.28.01-.86-0.13-2.38,1.14l-0.11.1a1.774,1.774,0,0,0-.57,1.2,1.306,1.306,0,0,0,.52,1.11c0.27,0.22,3.72,2.42,6.56,4.12,0.68,1.1,3.8,6.04,3.96,6.31a1.277,1.277,0,0,0,1.1.64h0.03a2.024,2.024,0,0,0,1.38-.66c1.29-1.5,1.11-2.12,1.11-2.38,0.02-.82-0.01-4.28.02-5.65l5.02-4.8c1.28,3.5,4.09,11.04,4.27,11.52a1.469,1.469,0,0,0,1.23,1c0.05,0,.11.01,0.16,0.01a2.035,2.035,0,0,0,1.4-.64s1.78-1.88,2.53-2.79a2.811,2.811,0,0,0,.72-2.06c-0.01-.25-0.72-11.81-0.99-16.32l8.1-8.05c2.87-2.85,2.41-6.29,1.35-7.35a3.819,3.819,0,0,0-2.59-.83h0Z" transform="translate(-1224 -2083)"/>
</svg>
